<svg xmlns="http://www.w3.org/2000/svg" viewBox="0 0 132 36"><defs><style>.cls-1{fill:#e10832;}.cls-1,.cls-4{fill-rule:evenodd;}.cls-2{isolation:isolate;}.cls-3,.cls-4{fill:#fff;}</style></defs><title>Fichier 2</title><g id="Calque_2" data-name="Calque 2"><g id="Calque_1-2" data-name="Calque 1"><path class="cls-1" d="M0,0H132V36H0Z"/><g class="cls-2"><g class="cls-2"><path class="cls-3" d="M36.53,20.73a3.35,3.35,0,0,0,.75.35,3.45,3.45,0,0,0,1.21.19A2.07,2.07,0,0,0,39.56,21a1.42,1.42,0,0,0,.6-.71,4,4,0,0,0,.28-1.18c0-.48.06-1,.06-1.67V11.72h2.2v5.76a17,17,0,0,1-.14,2.35A4.76,4.76,0,0,1,42,21.64a3,3,0,0,1-1.27,1.17,5.1,5.1,0,0,1-2.23.41,4.22,4.22,0,0,1-2.46-.7Z"/><path class="cls-3" d="M48.47,23.2a4.56,4.56,0,0,1-1.81-.34,4.14,4.14,0,0,1-1.39-.93,4.21,4.21,0,0,1-.89-1.37,4.56,4.56,0,0,1-.31-1.65,4.52,4.52,0,0,1,.31-1.68,4.09,4.09,0,0,1,.87-1.39,4.5,4.5,0,0,1,1.4-.95,4.71,4.71,0,0,1,1.84-.35,4.63,4.63,0,0,1,1.83.35,4.31,4.31,0,0,1,1.37.95,4.13,4.13,0,0,1,.86,1.37,4.47,4.47,0,0,1,.29,1.62v.4a2.13,2.13,0,0,1,0,.32H46.34a2.43,2.43,0,0,0,.24.88,2.1,2.1,0,0,0,.49.65,2.2,2.2,0,0,0,.69.42,2.35,2.35,0,0,0,.79.14,2.45,2.45,0,0,0,1.21-.31,1.64,1.64,0,0,0,.77-.82l1.84.51a3.77,3.77,0,0,1-1.48,1.57A4.58,4.58,0,0,1,48.47,23.2Zm2.17-5a2.2,2.2,0,0,0-.69-1.5,2.12,2.12,0,0,0-1.49-.57,2.16,2.16,0,0,0-.81.15,2.06,2.06,0,0,0-.66.42,2.26,2.26,0,0,0-.47.66,2.54,2.54,0,0,0-.22.84Z"/><path class="cls-3" d="M57.45,18.87a4.38,4.38,0,0,1,.31-1.66,4,4,0,0,1,.87-1.37A4.4,4.4,0,0,1,60,14.89a4.63,4.63,0,0,1,1.83-.35,4.42,4.42,0,0,1,2.34.59,3.76,3.76,0,0,1,1.44,1.55l-2.08.64a1.94,1.94,0,0,0-1.71-1,1.9,1.9,0,0,0-.86.19,2.07,2.07,0,0,0-.7.51,2.35,2.35,0,0,0-.46.79,3,3,0,0,0-.17,1,2.8,2.8,0,0,0,.18,1,2.47,2.47,0,0,0,.47.79,2,2,0,0,0,.69.52,1.92,1.92,0,0,0,.85.19,2.09,2.09,0,0,0,1.06-.29,1.68,1.68,0,0,0,.68-.7l2.09.64a3.59,3.59,0,0,1-1.42,1.56,5,5,0,0,1-4.21.25,4,4,0,0,1-1.39-1,4.25,4.25,0,0,1-.89-1.38A4.64,4.64,0,0,1,57.45,18.87Z"/><path class="cls-3" d="M74.74,23H72.6V18.36a2.39,2.39,0,0,0-.36-1.46,1.23,1.23,0,0,0-1-.47,1.78,1.78,0,0,0-.61.12,2.65,2.65,0,0,0-.6.36,3.46,3.46,0,0,0-.53.55,2.42,2.42,0,0,0-.35.7V23H67V11.4h2.14v4.83A3.33,3.33,0,0,1,70.36,15a3.58,3.58,0,0,1,1.75-.44,2.81,2.81,0,0,1,1.32.28,2.2,2.2,0,0,1,.8.74,3,3,0,0,1,.4,1.06,6.81,6.81,0,0,1,.11,1.21Z"/><path class="cls-3" d="M78.89,23.2a3,3,0,0,1-1.13-.2,2.52,2.52,0,0,1-.91-.55,2.49,2.49,0,0,1-.6-.84A2.44,2.44,0,0,1,76,20.56a2.3,2.3,0,0,1,.27-1.1,2.47,2.47,0,0,1,.73-.85,3.66,3.66,0,0,1,1.12-.55,5.06,5.06,0,0,1,1.44-.2,5.6,5.6,0,0,1,1.09.1,4.09,4.09,0,0,1,.95.27v-.48a1.71,1.71,0,0,0-.47-1.28A2,2,0,0,0,79.77,16a3.66,3.66,0,0,0-1.31.24,6,6,0,0,0-1.31.7l-.65-1.36A6.17,6.17,0,0,1,80,14.54a4.07,4.07,0,0,1,2.8.89,3.22,3.22,0,0,1,1,2.56v2.6a.77.77,0,0,0,.12.48.54.54,0,0,0,.39.16V23a4.47,4.47,0,0,1-.94.12,1.39,1.39,0,0,1-.94-.28,1.18,1.18,0,0,1-.4-.71l0-.47a3.58,3.58,0,0,1-1.36,1.12A3.81,3.81,0,0,1,78.89,23.2Zm.6-1.56a2.73,2.73,0,0,0,1-.19,1.88,1.88,0,0,0,.76-.51.77.77,0,0,0,.35-.61v-.95a4,4,0,0,0-.83-.23,4.34,4.34,0,0,0-.86-.09,2.32,2.32,0,0,0-1.36.37,1.13,1.13,0,0,0-.52.95,1.16,1.16,0,0,0,.41.9A1.51,1.51,0,0,0,79.49,21.64Z"/><path class="cls-3" d="M93.53,23H91.39V18.36A2.48,2.48,0,0,0,91,16.89a1.14,1.14,0,0,0-1-.46,2,2,0,0,0-.66.12,2.84,2.84,0,0,0-.63.36,3.46,3.46,0,0,0-.53.55,2.19,2.19,0,0,0-.35.7V23H85.76V14.69h1.93v1.54A3.22,3.22,0,0,1,89,15a4.28,4.28,0,0,1,2-.45,2.51,2.51,0,0,1,1.27.29,2.06,2.06,0,0,1,.77.75,3,3,0,0,1,.37,1,7,7,0,0,1,.11,1.2Z"/><path class="cls-3" d="M98.66,23.09a3.5,3.5,0,0,1-1.53-.33,3.93,3.93,0,0,1-1.19-.92,4.28,4.28,0,0,1-.77-1.35,5,5,0,0,1,0-3.31A4.36,4.36,0,0,1,96,15.8a3.62,3.62,0,0,1,1.23-.92,3.76,3.76,0,0,1,1.58-.34,3.3,3.3,0,0,1,1.71.44,3.79,3.79,0,0,1,1.21,1.18V14.69h1.87v8a3.81,3.81,0,0,1-.35,1.65,3.73,3.73,0,0,1-1,1.25,4.3,4.3,0,0,1-1.47.78,6.13,6.13,0,0,1-1.85.27,5.28,5.28,0,0,1-2.31-.45A4.63,4.63,0,0,1,95,24.86l1.16-1.13a3.41,3.41,0,0,0,1.21.93,3.64,3.64,0,0,0,1.54.33,3,3,0,0,0,.94-.14,2.23,2.23,0,0,0,.81-.42,1.93,1.93,0,0,0,.55-.73,2.62,2.62,0,0,0,.2-1.05V21.59a2.85,2.85,0,0,1-1.17,1.11A3.42,3.42,0,0,1,98.66,23.09Zm.72-1.7a1.85,1.85,0,0,0,.67-.12,2.19,2.19,0,0,0,.59-.3,2.27,2.27,0,0,0,.48-.45,2.14,2.14,0,0,0,.32-.54V18a2.58,2.58,0,0,0-.9-1.18,2.15,2.15,0,0,0-1.29-.45,1.78,1.78,0,0,0-.89.22,2.22,2.22,0,0,0-.69.57,2.57,2.57,0,0,0-.43.82,3.12,3.12,0,0,0-.16,1,2.56,2.56,0,0,0,.18,1,2.51,2.51,0,0,0,.49.78,2.18,2.18,0,0,0,.72.52A2.13,2.13,0,0,0,99.38,21.39Z"/><path class="cls-3" d="M109.38,23.2a4.61,4.61,0,0,1-1.82-.34,4.35,4.35,0,0,1-1.39-.93,4.18,4.18,0,0,1-.88-1.37,4.36,4.36,0,0,1-.31-1.65,4.72,4.72,0,0,1,.3-1.68,4.11,4.11,0,0,1,.88-1.39,4.45,4.45,0,0,1,1.39-.95,4.77,4.77,0,0,1,1.85-.35,4.54,4.54,0,0,1,1.82.35,4.1,4.1,0,0,1,1.37.95,4,4,0,0,1,.87,1.37,4.69,4.69,0,0,1,.29,1.62c0,.14,0,.28,0,.4a1.32,1.32,0,0,1,0,.32h-6.46a2.65,2.65,0,0,0,.24.88,2.13,2.13,0,0,0,.5.65,2.27,2.27,0,0,0,.68.42,2.43,2.43,0,0,0,2-.17,1.67,1.67,0,0,0,.78-.82l1.83.51a3.75,3.75,0,0,1-1.47,1.57A4.58,4.58,0,0,1,109.38,23.2Zm2.17-5a2.2,2.2,0,0,0-.69-1.5,2.24,2.24,0,0,0-2.3-.42,2.06,2.06,0,0,0-.66.42,2.26,2.26,0,0,0-.47.66,2.13,2.13,0,0,0-.22.84Z"/></g></g><path class="cls-4" d="M17.57,12.3,26.68,18l-9.11,5.7Z"/></g></g></svg>