<?xml version="1.0" encoding="utf-8"?>
<!-- Generator: Adobe Illustrator 23.0.3, SVG Export Plug-In . SVG Version: 6.00 Build 0)  -->
<svg version="1.1" id="Calque_1" xmlns="http://www.w3.org/2000/svg" xmlns:xlink="http://www.w3.org/1999/xlink" x="0px" y="0px"
	 viewBox="0 0 552.32 171.32" style="enable-background:new 0 0 552.32 171.32;" xml:space="preserve">
<style type="text/css">
	.st0{fill-rule:evenodd;clip-rule:evenodd;fill:#3A8DDE;}
	.st1{fill:#F8AB10;}
	.st2{fill:#0058A2;}
	.st3{fill:#E73137;}
	.st4{fill:#3A8DDE;}
	.st5{fill-rule:evenodd;clip-rule:evenodd;fill:#75B733;}
</style>
<g>
	<path class="st0" d="M121.8,138.17c0-1.2,0.6-3.38,1-4.31c2.77-6.56,11.84-9.09,17.64-3.28c7.42,7.42,0.76,18.43-6.75,18.43
		c-4.12,0-5.89-0.5-8.87-3.45C123.1,143.85,121.8,140.82,121.8,138.17L121.8,138.17z M143.05,122.67c-1.38-0.73-2.52-1.42-4.16-2
		c-15.74-5.49-31.36,11.55-21.77,27.5c0.65,1.08,1.22,1.61,1.93,2.54c2.23,2.92,8.21,5.95,11.9,5.95c4.72,0,5.88,0.25,10.34-1.98
		c0.99-0.5,1.83-1.02,2.62-1.63c2.54-1.96,1.69-1.42,3.34-3.24c0.88-0.97,1.96-2.85,2.48-4.1c0.9-2.18,1.61-4.31,1.61-7.31V104.4
		c0-4.23-6.31-5.79-7.93-1.34C142.71,104.96,143.05,119.97,143.05,122.67L143.05,122.67z"/>
	<g>
		<path class="st0" d="M162.31,119.34L162.31,119.34c2.24,0,4.08,1.83,4.08,4.07v29.19c0,2.24-1.83,4.08-4.08,4.08l0,0
			c-2.24,0-4.07-1.83-4.07-4.08v-29.19C158.24,121.17,160.07,119.34,162.31,119.34L162.31,119.34z"/>
	</g>
	<g>
		<path class="st0" d="M215.82,125.86c3.08,0,5.41,0.63,7.49,2.7c1.26,1.26,2.92,3.6,2.92,6.01h-19.97
			c0.44-0.92,0.58-3.75,3.07-6.06C210.81,127.12,213.06,125.86,215.82,125.86L215.82,125.86z M197.76,136.05
			c0,5.66,0.45,9.65,4.41,14.07c2.66,2.97,5.13,4.8,9.31,5.99c10.2,2.89,21.34-4.15,21.34-7.74c0-2.3-1.29-3.82-3.19-3.82
			c-2.21,0-2.25,1.49-5.53,3.39c-5.54,3.22-13.52,2.65-16.78-3.6c-0.58-1.11-1.06-2.13-1.06-3.83h24.43c2.56,0,3.82-1.01,3.82-3.19
			c0-5.7-2.86-11.48-6.16-14.02c-3.91-3.01-6.72-4.46-12.53-4.46c-4.61,0-9.29,2.17-12.38,5.26
			C200.45,127.1,197.76,131.5,197.76,136.05L197.76,136.05z"/>
		<path class="st0" d="M237.2,137.54c0,8.54,5.25,15.73,12.77,18.25c6.89,2.3,13.51,0.54,18.97-3.71c0.48-0.37,0.63-0.44,1.03-0.89
			c2.78-3.1,0.14-6.22-2.39-6.22c-1.97,0-2.26,1.25-4.97,2.89c-7.58,4.58-17.33,0.04-17.33-10.11c0-9.66,9.69-15.21,18.56-9.21
			c3.3,2.23,5.87-0.56,5.87-2.68c0-4.42-8.34-7.01-13.17-7.01C245.47,118.85,237.2,127.55,237.2,137.54L237.2,137.54z"/>
		<path class="st0" d="M274.41,107.16v35.9c0,3.96,1.57,7.39,4.09,9.93c3.43,3.45,7.51,3.66,12.69,3.66c4.09,0,5.06-6,0.74-6.9
			c-4.37-0.91-9.45,2.4-9.45-10.31v-13.59h8.5c4.8,0,5.11-7.01,0.21-7.01h-8.71v-11.68c0-1.99-3.56-4.89-6.72-2.47
			C275.19,105.13,274.41,106.27,274.41,107.16L274.41,107.16z"/>
		<path class="st0" d="M181.61,124.79c0-2.68-0.95-5.52-4.04-5.52c-2.32,0-4.25,1.74-4.25,4.04v29.32c0,4.33,6.36,5.66,7.99,1.4
			c0.95-2.49-0.47-15.58,0.6-19.79c0.89-3.48,3.51-5.77,6.68-6.92c4.45-1.61,9.17,0.32,9.17-4.85c0-5.39-8.58-3.2-11.47-1.7
			C184.35,121.75,182.97,123.23,181.61,124.79L181.61,124.79z"/>
		<g>
			<path class="st0" d="M465.77,138.16c0-6.13,5.14-11.17,10.96-11.17c9.98,0,14.81,12.08,7.96,18.92
				c-5.69,5.69-15.08,3.34-17.94-3.26C466.29,141.58,465.77,139.6,465.77,138.16L465.77,138.16z M458.39,137.32
				c0,5.37,1.51,10.06,5.29,13.68c5.34,5.11,12.4,7.08,19.55,4.42c2.06-0.77,3.69-1.93,4.24-2.08c-0.49,1.02,0.15,1.95-0.87,4.61
				c-2.4,6.29-9.65,7-15.69,6.05c-0.62-0.1-1.17-0.22-1.76-0.35c-1.62-0.37-0.66-0.41-2.75-0.41c-2.56,0-5.01,4.99-0.31,6.84
				c1.51,0.6,3.1,0.76,4.93,0.97c9.79,1.14,19.13-1.09,23.08-10.88c2.14-5.31,1.38-13.77,1.38-21.38c0-2.42,0.38-15.2-0.41-16.87
				c-1.76-3.73-7.29-2.62-7.59,1.06C473.68,113.75,458.39,124.92,458.39,137.32L458.39,137.32z"/>
			<path class="st0" d="M544.03,134.58h-19.81c0.71-1.48,0.45-3.5,3.21-6.06c1.55-1.44,3.96-2.46,6.72-2.54
				c3.5-0.11,7.15,2.07,8.76,5.08C543.41,132.01,544,133.26,544.03,134.58L544.03,134.58z M515.58,137.95c0,1.07,0.3,2.87,0.51,3.92
				c0.28,1.41,0.55,2.4,1.1,3.53c2.05,4.22,4.55,7.22,8.78,9.34c11.98,5.99,24.59-3,24.59-6.25c0-2.61-0.98-3.79-3.79-3.79
				c-1.24,0-2.55,2.05-5.47,3.59c-1.53,0.8-5.07,1.94-7.47,1.57c-1.41-0.22-2.47-0.34-3.57-0.87c-2.05-0.98-3.84-2.34-4.92-4.36
				c-0.7-1.3-1.12-2.62-1.12-4.15h25.08c6.16,0,1.58-12.27-1.95-15.75c-4.49-4.43-8-5.53-14.28-5.53c-2.76,0-5.32,0.97-7.17,1.9
				c-1.87,0.94-3.79,2.3-5.22,3.84c-0.71,0.76-1.32,1.64-1.91,2.52c-1.37,2.05-2.16,3.87-2.66,6.4
				C515.9,134.96,515.58,136.8,515.58,137.95L515.58,137.95z"/>
			<g>
				<path class="st0" d="M338.12,134.58h-19.81c1.17-5.02,4.28-8.58,9.9-8.58c4.01,0,6.93,2.05,8.77,5.08
					C337.4,131.77,338.09,133.6,338.12,134.58L338.12,134.58z M309.67,137.74c0,7.6,4.45,14.08,10.22,16.96
					c12.1,6.04,24.76-2.83,24.76-6.43c0-2.42-1.44-3.58-3.79-3.58c-1.55,0-2.41,2.1-5.61,3.66c-3.46,1.68-7.68,2.13-11.37,0.47
					c-3.76-1.69-4.93-4.7-5.78-8.34c1.95,0,25.24,0.31,26.53-0.23c3.25-1.36,1.12-7.88,0.36-9.8c-2.48-6.19-8.47-11.25-15.72-11.25
					c-6.19,0-10.03,1.3-14.39,5.63C311.74,127.96,309.67,133.16,309.67,137.74L309.67,137.74z"/>
				<path class="st0" d="M420.7,134.58h-19.81c0.76-1.58,1.41-8.35,9.92-8.6c2.23-0.07,5.09,0.96,6.68,2.53
					C419.08,130.09,420.64,132.06,420.7,134.58L420.7,134.58z M409.95,156.7c4.62,0,7.35-0.27,11.39-2.52
					c2.31-1.28,5.89-3.38,5.89-6.33c0-2.8-3.36-4.2-5.33-2.38c-4.68,4.35-13,6.55-18.01,1.48c-1.7-1.72-3-3.66-3-6.48h25.08
					c6.03,0,1.79-11.98-1.95-15.76c-9.96-10.05-25.69-5.57-30.21,5.73c-0.65,1.64-1.25,3.59-1.35,5.39
					c-0.14,2.36-0.52,2.54,0.29,6.03c0.35,1.51,0.55,2.25,1.11,3.53c1.84,4.12,4.77,7.33,8.78,9.34
					C404.61,155.72,407.11,156.7,409.95,156.7L409.95,156.7z"/>
				<path class="st0" d="M360.25,125.09c0-1.92,0.1-2.43-0.75-3.68c-2.1-3.08-7.47-2.5-7.47,3.26v26.97c0,5.94,6.06,5.89,7.69,2.85
					c0.95-1.78,0.53-13.01,0.53-15.49c0-4.34,0.03-6.28,1.89-8.85c3.37-4.67,11.35-4.9,14.64-0.09c1.77,2.6,1.59,4.79,1.59,8.94
					c0,2.51-0.38,13.41,0.51,15.29c1.26,2.65,4.96,2.89,6.69,0.97c0.52-0.57,1.02-1.52,1.02-2.56v-17.28
					c0-12.28-10.67-19.9-21.57-14.4C362.98,122.05,361.64,123.5,360.25,125.09L360.25,125.09z"/>
			</g>
			<path class="st0" d="M442.27,125.09c0-1.85,0.16-2.79-0.78-3.85c-2.82-3.18-7.43-1.71-7.43,3.22v27.18c0,6.73,8.01,5.9,8.23,1.06
				c0.29-6.59-1.13-17.23,1.59-21.17c2.19-3.17,6.23-4.93,10.21-4.97c6.2-0.05,5.03-7.38,0.84-7.38
				C448.78,119.19,445.8,121.03,442.27,125.09L442.27,125.09z"/>
			<g>
				<path class="st0" d="M501.88,123.41v29.29c0,5.14,8.01,4.97,8.01,0v-29.29c0-3.83-5.05-4.93-7-2.57
					C502.38,121.46,501.88,122.33,501.88,123.41L501.88,123.41z"/>
			</g>
		</g>
		<g>
			<path class="st1" d="M92.35,55.96c-0.08-0.21-0.16-0.42-0.24-0.62c-7.22,8.19-24.94,13.49-40.89,12.3
				c-9.39-0.67-26.79-5.51-35.56-10.86c9.27,8.83,20.13,15.54,32.41,19.17c14.6,4.31,30.18,4.02,38.96-0.53
				C93.45,71.11,94.92,63.4,92.35,55.96"/>
			<path class="st2" d="M72.26,4.43c28.75,16.89,11.65,69.97-11.22,87.03c-21.28,15.86-43.92,8.56-48.83-6.08
				c4.28,6.34,12.79,8.64,20.35,6.13c21.01-8.37,31.83-46.21,33.23-59.35c0.94-11.31-0.55-18.91-4.5-23.72
				c-4.52-4.75-11.46-7.06-21.61-3.89C46.66-1.15,61.6-1.83,72.26,4.43"/>
			<path class="st3" d="M88.34,74.68c0.11-0.07,0.23-0.15,0.35-0.22c0.02-0.01,0.04-0.02,0.06-0.04c0.59-0.4,1.18-0.83,1.71-1.31
				c0.26-0.24,0.51-0.48,0.76-0.74c11.18-11.27,13.56-42.65-14-57.52c-9.81-5.3-32.6-12.71-55.35-1.27
				c-7.53,3.78-15.29,11.64-19.46,22.3c3.08-5.07,8.41-8.49,18.93-9.97c10.49-1.32,24.94,0.31,39.08,5.26
				c9.14,3.35,16.52,7.48,22.28,12.15c4.76,4.06,7.83,7.92,9.41,12.03c0.08,0.2,0.16,0.41,0.24,0.62c2.57,7.44,1.1,15.15-5.32,19.46
				c-0.01,0.01,0.01,0,0,0c0.3-0.15,0.6-0.31,0.91-0.51c0.04-0.01,0.08-0.04,0.14-0.06C88.16,74.79,88.25,74.74,88.34,74.68"/>
			<path class="st1" d="M5.98,53.93c0.52,0.83,1.71,2.25,2.5,3.14c5.52-12.92,35.78-21.31,44.7-21.2
				c-20.04-6.42-39.7-3.36-47.6,3.46C2.71,42.51,1.82,47.27,5.98,53.93"/>
			<path class="st4" d="M64.98,83.21c-16.11-0.9-39.58-7.07-56.2-25.8c-0.09-0.1-0.19-0.22-0.3-0.35c-0.79-0.9-1.98-2.31-2.5-3.14
				c-4.16-6.66-3.27-11.41-0.4-14.6l0,0H5.57c-0.52,0.46-1.15,1.05-1.87,1.98c-4.27,5.48-4.78,14.35-1.87,23.76
				c6.33,20.44,34.03,32.72,56.52,29.36c14.38-2.16,23.36-10.2,27.11-13.48C77.33,83.24,71.31,83.56,64.98,83.21"/>
			<path class="st3" d="M197.49,39.41c-18.36,0-28.9,7.8-28.9,21.43c0,13.62,10.53,21.44,28.9,21.44c18.37,0,28.9-7.82,28.9-21.44
				C226.38,47.22,215.86,39.41,197.49,39.41 M197.49,72.37c-10.05,0-15.12-3.89-15.12-11.52c0-7.64,5.07-11.51,15.12-11.51
				s15.14,3.87,15.14,11.51C212.62,68.47,207.54,72.37,197.49,72.37"/>
			<path class="st3" d="M230.12,40.4v9.22h17.4c0,0.87-0.01,28.38-0.01,28.38c0,2.73,4.13,3.71,7.68,3.71c3.54,0,7.69-0.96,7.69-3.7
				V49.62h17.41V40.4H230.12z"/>
			<path class="st3" d="M372.85,71.77c-4.22,0-7.16-0.68-8.76-2.03c-2.04-1.73-2.31-4.33-2.35-6.32V43.37
				c0-2.64-3.95-3.58-7.33-3.58c-3.4,0-7.39,0.94-7.39,3.57v6.36v13.04c0,7.43,2.42,12.64,7.16,15.45
				c5.9,3.38,16.57,3.27,26.89,3.16l12.81-0.06l0.02-1.87v-7.69H372.85z"/>
			<path class="st3" d="M135.11,68.75c0,7.24,6.14,12.14,16.51,13.02V38.09h23.33V28.01h-60.77v10.08h20.93V68.75z"/>
			<path class="st3" d="M341.06,81.38l-0.37-1.64c-3.41-16.8-22.61-35.99-26.56-38.8c-1.29-0.92-2.65-1.11-4.47-1.15
				c-1.81,0.04-3.18,0.23-4.47,1.15c-3.96,2.81-23.15,21.99-26.56,38.8l-0.35,1.64h13.56l0.27-1.17c0.54-2.43,1.43-5,2.61-7.63
				h29.88c1.19,2.62,2.08,5.2,2.62,7.63l0.26,1.17H341.06 M299.52,63.96c2.85-4.31,6.3-8.53,10.13-12.26
				c3.83,3.73,7.29,7.96,10.13,12.26H299.52z"/>
		</g>
		<path class="st5" d="M505.68,115.82c2.63,0,4.64-1.89,4.64-4c0-1.62,0.09-2.41-1.41-3.86c-2.73-2.64-7.48-0.71-7.62,3.24
			C501.2,113.61,503.27,115.82,505.68,115.82L505.68,115.82z"/>
	</g>
	<path class="st5" d="M162.33,106.75c2.42,0,4.38,1.96,4.38,4.38c0,2.42-1.96,4.37-4.38,4.37c-2.42,0-4.37-1.96-4.37-4.37
		C157.96,108.71,159.91,106.75,162.33,106.75L162.33,106.75z"/>
</g>
</svg>
